# xmcd CD database file
#
# Track frame offsets:
#	150
#	16808
#	36005
#	59251
#	97940
#	127833
#	154305
#	180054
#
# Disc length: 2641 seconds
#
# Revision: 0
# Processed by: cddbd v1.5.1PL2 Copyright (c) Steve Scherf et al.
# Submitted via: CDex 1.51
#
DISCID=4f0a4f08
DTITLE=Jimmy McGriff - Fly Dude
DYEAR=1900
DGENRE=Jazz
TTITLE0=Everyday I Have The Blues
TTITLE1=Jumping The Blues
TTITLE2=Healin' Feeling
TTITLE3=Cotton Boy Blues
TTITLE4=Yardbird Suite
TTITLE5=The Groove Fly
TTITLE6=It's You I Adore
TTITLE7=Butterfly
EXTD=
EXTT0=
EXTT1=
EXTT2=
EXTT3=
EXTT4=
EXTT5=
EXTT6=
EXTT7=
PLAYORDER=
